HIERARCHY
ROOT reference
{
  OFFSET 0 0 0
  CHANNELS 6 Xposition Yposition Zposition Zrotation Xrotation Yrotation
  JOINT Hips
  {
    OFFSET 3.28202 83.565 230.406
    CHANNELS 6 Xposition Yposition Zposition Zrotation Xrotation Yrotation
    JOINT Spine
    {
      OFFSET 0 7.59534 0
      CHANNELS 6 Xposition Yposition Zposition Zrotation Xrotation Yrotation
      JOINT Spine1
      {
        OFFSET 0 23.5015 0
        CHANNELS 6 Xposition Yposition Zposition Zrotation Xrotation Yrotation
        JOINT Neck
        {
          OFFSET 0 23.405 2.12773
          CHANNELS 6 Xposition Yposition Zposition Zrotation Xrotation Yrotation
          JOINT Head
          {
            OFFSET 0 12.9677 -1.85252
            CHANNELS 6 Xposition Yposition Zposition Zrotation Xrotation Yrotation
            End Site
            {
              OFFSET 0 23.1565 0
            }
          }
        }
        JOINT LeftShoulder
        {
          OFFSET 3.62206 22.4732 -0.132728
          CHANNELS 6 Xposition Yposition Zposition Zrotation Xrotation Yrotation
          JOINT LeftArm
          {
            OFFSET 8.17784 0 0
            CHANNELS 6 Xposition Yposition Zposition Zrotation Xrotation Yrotation
            JOINT LeftForeArm
            {
              OFFSET 30.104 0 0
              CHANNELS 6 Xposition Yposition Zposition Zrotation Xrotation Yrotation
              JOINT LeftHand
              {
                OFFSET 24.4664 0 0
                CHANNELS 6 Xposition Yposition Zposition Zrotation Xrotation Yrotation
                End Site
                {
                  OFFSET 13.8939 0 0
                }
              }
            }
          }
        }
        JOINT RightShoulder
        {
          OFFSET -3.6336 22.4732 -0.132728
          CHANNELS 6 Xposition Yposition Zposition Zrotation Xrotation Yrotation
          JOINT RightArm
          {
            OFFSET -8.17784 0 0
            CHANNELS 6 Xposition Yposition Zposition Zrotation Xrotation Yrotation
            JOINT RightForeArm
            {
              OFFSET -30.104 0 0
              CHANNELS 6 Xposition Yposition Zposition Zrotation Xrotation Yrotation
              JOINT RightHand
              {
                OFFSET -24.4664 0 0
                CHANNELS 6 Xposition Yposition Zposition Zrotation Xrotation Yrotation
                End Site
                {
                  OFFSET -13.8939 0 0
                }
              }
            }
          }
        }
      }
    }
    JOINT LeftUpLeg
    {
      OFFSET 9.26261 0 0
      CHANNELS 6 Xposition Yposition Zposition Zrotation Xrotation Yrotation
      JOINT LeftLeg
      {
        OFFSET 0 -35.4897 0
        CHANNELS 6 Xposition Yposition Zposition Zrotation Xrotation Yrotation
        JOINT LeftFoot
        {
          OFFSET 0 -38.2023 0
          CHANNELS 6 Xposition Yposition Zposition Zrotation Xrotation Yrotation
          JOINT LeftToeBase
          {
            OFFSET 0 -6.0207 13.8939
            CHANNELS 6 Xposition Yposition Zposition Zrotation Xrotation Yrotation
            End Site
            {
              OFFSET 0 0 3.70504
            }
          }
        }
      }
    }
    JOINT RightUpLeg
    {
      OFFSET -9.26261 0 0
      CHANNELS 6 Xposition Yposition Zposition Zrotation Xrotation Yrotation
      JOINT RightLeg
      {
        OFFSET 0 -35.4897 0
        CHANNELS 6 Xposition Yposition Zposition Zrotation Xrotation Yrotation
        JOINT RightFoot
        {
          OFFSET 0 -38.2023 0
          CHANNELS 6 Xposition Yposition Zposition Zrotation Xrotation Yrotation
          JOINT RightToeBase
          {
            OFFSET 0 -6.0207 13.8939
            CHANNELS 6 Xposition Yposition Zposition Zrotation Xrotation Yrotation
            End Site
            {
              OFFSET 0 0 3.70504
            }
          }
        }
      }
    }
  }
}
MOTION
Frames:	5
Frame Time:	0.004
0 0 0 0 0 -0 -24.9585 75.6114 -192.851 -1.06792 0.100463 -4.81047 0 7.59534 0 -0.372595 -4.65563 0.247183 0 23.5015 0 3.6016 -2.45484 0.341199 0 23.405 2.12773 -3.28314 28.1623 -2.18587 0 12.9677 -1.85252 -0.601494 -3.38641 -2.76013 3.62206 22.4732 -0.132728 11.2551 2.66514 13.979 8.17784 0 0 -18.3558 0.747251 -2.99153 30.104 2.84217e-014 0 2.7193 0.316148 -1.31184 24.4664 0 0 4.01435 0.261774 -2.44285 -3.6336 22.4732 -0.132728 -9.58734 2.043 18.398 -8.17784 0 0 16.3546 -1.02215 -6.97624 -30.104 -2.84217e-014 2.84217e-014 -3.63208 0.969961 0.385015 -24.4664 0 0 0.654619 0.982755 0.036735 9.26261 0 0 4.36655 11.0549 -0.184021 -3.55271e-015 -35.4897 2.84217e-014 -1.02974 -6.6101 -5.68071 0 -38.2023 -2.84217e-014 2.67966 -6.09978 17.5932 -1.77636e-015 -6.0207 13.8939 6.4605e-016 -3.97569e-016 -0 -9.26261 0 0 -2.66896 -0.96296 -0.254875 7.10543e-015 -35.4897 0 -1.17387 7.74444 -1.4417 0 -38.2023 2.84217e-014 2.95863 -7.20158 7.06791 0 -6.0207 13.8939 -7.86985e-016 0 4.96962e-017 
0 0 0 0 0 -0 -24.9585 75.6114 -192.851 -1.0666 0.116384 -4.79963 -7.10543e-015 7.59534 2.84217e-014 -0.372553 -4.66535 0.247187 0 23.5015 0 3.60162 -2.45696 0.3412 7.10543e-015 23.405 2.12773 -3.30487 28.1622 -2.19396 0 12.9677 -1.85252 -0.558756 -3.40515 -2.76443 3.62206 22.4732 -0.132728 11.2551 2.66514 13.979 8.17784 0 2.84217e-014 -18.3531 0.798972 -2.99157 30.104 0 2.84217e-014 2.74211 0.341201 -1.31184 24.4664 0 0 4.02248 0.286344 -2.45759 -3.6336 22.4732 -0.132728 -9.58734 2.043 18.398 -8.17784 0 0 16.3507 -1.0534 -6.97631 -30.104 2.84217e-014 2.84217e-014 -3.61934 0.969961 0.385015 -24.4664 0 -2.84217e-014 0.665654 0.982754 0.055155 9.26261 0 0 4.36648 11.0343 -0.184008 -3.55271e-015 -35.4897 0 -1.0294 -6.61013 -5.6778 -7.10543e-015 -38.2023 0 2.67868 -6.09608 17.5792 0 -6.0207 13.8939 7.95139e-016 3.97569e-016 -0 -9.26261 0 0 -2.66916 -0.962959 -0.266718 0 -35.4897 -2.84217e-014 -1.17857 7.74417 -1.52189 1.42109e-014 -38.2023 2.84217e-014 3.00364 -7.21901 7.14142 0 -6.0207 13.8939 1.24435e-016 9.93923e-017 -0 
0 0 0 0 0 -0 -24.9585 75.6114 -192.848 -1.06645 0.118413 -4.79068 0 7.59534 2.84217e-014 -0.372569 -4.66153 0.247186 0 23.5015 0 3.60167 -2.46645 0.341202 -7.10543e-015 23.405 2.12773 -3.2894 28.162 -2.20258 0 12.9677 -1.85252 -0.570799 -3.38305 -2.77322 3.62206 22.4732 -0.132728 11.2551 2.66514 13.979 8.17784 0 0 -18.3533 0.793867 -2.99156 30.104 0 0 2.73487 0.361812 -1.31889 24.4664 -2.84217e-014 0 4.03545 0.30707 -2.45076 -3.6336 22.4732 -0.132728 -9.58734 2.043 18.398 -8.17784 0 0 16.3492 -1.06473 -6.98489 -30.104 0 0 -3.61728 0.969961 0.385015 -24.4664 0 -2.84217e-014 0.691268 0.982754 0.0889571 9.26261 0 2.84217e-014 4.36648 11.0327 -0.184007 -3.55271e-015 -35.4897 0 -1.03099 -6.60998 -5.69159 -7.10543e-015 -38.2023 0 2.69642 -6.08447 17.5794 0 -6.0207 13.8939 5.96354e-016 0 1.59028e-015 -9.26261 1.42109e-014 0 -2.66909 -0.962959 -0.262574 -7.10543e-015 -35.4897 -2.84217e-014 -1.18051 7.74452 -1.41742 0 -38.2023 0 2.9706 -7.22773 7.01524 0 -6.0207 13.8939 2.20721e-016 -9.93923e-017 2.48481e-017 
0 0 0 0 0 -0 -24.9585 75.6114 -192.847 -1.06572 0.127013 -4.79421 7.10543e-015 7.59534 -2.84217e-014 -0.372528 -4.67108 0.247189 0 23.5015 0 3.60165 -2.46187 0.341201 0 23.405 2.12773 -3.29435 28.162 -2.20736 0 12.9677 -1.85252 -0.564794 -3.38557 -2.77782 3.62206 22.4732 -0.132728 11.2551 2.66514 13.979 8.17784 0 0 -18.3527 0.806405 -2.99157 30.104 2.84217e-014 -2.84217e-014 2.78734 0.420199 -1.3018 24.4664 0 -2.84217e-014 3.86644 0.368446 -2.47657 -3.6336 22.4732 -0.132728 -9.58754 2.04294 18.4036 -8.17784 2.84217e-014 0 16.3467 -1.08331 -6.99412 -30.104 -2.84217e-014 0 -3.60872 0.969961 0.385015 -24.4664 0 2.84217e-014 0.706685 0.982753 0.106861 9.26261 0 -2.84217e-014 4.36845 11.0279 -0.194386 0 -35.4897 0 -1.02611 -6.61046 -5.64917 0 -38.2023 0 2.67645 -6.08267 17.5684 3.55271e-015 -6.0207 13.8939 9.93923e-017 3.97569e-016 1.59028e-015 -9.26261 1.42109e-014 -2.84217e-014 -2.66888 -0.96296 -0.250353 0 -35.4897 0 -1.17333 7.73304 -1.46223 0 -38.2023 0 2.9338 -7.21489 7.06403 0 -6.0207 13.8939 1.03197e-015 4.96962e-017 -2.48481e-017 
0 0 0 0 0 -0 -24.9585 75.6114 -192.845 -1.06569 0.127728 -4.78156 0 7.59534 0 -0.372581 -4.65894 0.247185 7.10543e-015 23.5015 0 3.60175 -2.47862 0.341205 0 23.405 2.12773 -3.29648 28.1619 -2.21177 0 12.9677 -1.85252 -0.556609 -3.37832 -2.78133 3.62206 22.4732 -0.132728 11.2527 2.67997 13.9797 8.17784 2.84217e-014 -2.84217e-014 -18.35 0.803935 -2.99157 30.104 0 0 2.78962 0.425231 -1.30607 24.4664 0 -2.84217e-014 3.87811 0.373092 -2.48007 -3.6336 22.4732 -0.132728 -9.57981 2.04303 18.3958 -8.17784 2.84217e-014 2.84217e-014 16.3466 -1.08429 -6.99207 -30.104 5.68434e-014 0 -3.61655 0.966863 0.385015 -24.4664 -2.84217e-014 0 0.744926 0.979828 0.122261 9.26261 0 2.84217e-014 4.3655 11.0236 -0.17906 0 -35.4897 -2.84217e-014 -1.02759 -6.6057 -5.66595 -7.10543e-015 -38.2023 -2.84217e-014 2.67016 -6.08042 17.5529 0 -6.0207 13.8939 8.44835e-016 3.97569e-016 -0 -9.26261 0 2.84217e-014 -2.66892 -0.96296 -0.252584 0 -35.4897 -2.84217e-014 -1.17511 7.72518 -1.51155 -1.42109e-014 -38.2023 2.84217e-014 2.96009 -7.1988 7.10006 0 -6.0207 13.8939 -3.49426e-017 -9.93923e-017 -0 
